<svg xmlns="http://www.w3.org/2000/svg" viewBox="0 0 1919.88 572.44" preserveAspectRatio="none">
  <path fill="#fff" d="M0 0H1919.88V502c-59.41 1.7-93.83 22.97-164.65 20.37-35.38-1.3-78.08-27.16-140.88-22.07-109.19 8.86-156.96 68.73-247.82 61.11-69.04-5.79-56.55-37.11-127.3-35.65-67.34 1.39-60.88 24.77-123.12 27.3-84.95 3.45-126.4-61.25-216.36-56.16-137.78 7.8-101.26 52.21-200.29 57.71-92.92 5.16-92.98-45.95-205.38-59.41-145.55-17.44-188.41 32.25-293.65 18.67-27.88-3.6-58.78-32.05-115.42-40.74-35.43-5.44-65.32-3.85-84.87-1.7V0Z"/>
</svg>
