<?xml version="1.0" encoding="UTF-8"?>
<svg xmlns="http://www.w3.org/2000/svg" viewBox="0 0 1919.88 1080.52">
  <g id="Pieza_B" data-name="Pieza B">
    <path d="M1919.88,1080.52H.12V508.08c19.55-2.15,49.44-3.74,84.87,1.7,56.64,8.69,87.54,37.14,115.42,40.74,105.24,13.58,148.1-36.11,293.65-18.67,112.4,13.46,112.46,64.57,205.38,59.41,99.03-5.5,62.51-49.91,200.29-57.71,89.96-5.09,131.41,59.61,216.36,56.16,62.24-2.53,55.78-25.91,123.12-27.3,70.75-1.46,58.26,29.86,127.3,35.65,90.86,7.62,138.63-52.25,247.82-61.11,62.8-5.09,105.5,20.77,140.88,22.07,70.82,2.6,105.24-18.67,164.65-20.37v541.89Z"/>
  </g>
  <g id="Pieza_A" data-name="Pieza A">
    <path d="M0,.68v510.97c19.55-2.15,49.44-3.74,84.87,1.7,56.64,8.69,87.54,37.14,115.42,40.74,105.24,13.58,148.1-36.11,293.65-18.67,112.4,13.46,112.46,64.57,205.38,59.41,99.03-5.5,62.51-49.91,200.29-57.71,89.96-5.09,131.41,59.61,216.36,56.16,62.24-2.53,55.78-25.91,123.12-27.3,70.75-1.46,58.26,29.86,127.3,35.65,90.86,7.62,138.63-52.25,247.82-61.11,62.8-5.09,105.5,20.77,140.88,22.07,70.82,2.6,105.24-18.67,164.65-20.37V.59C1860.34,2.29,19.55-1.46,0,.68Z"/>
  </g>
</svg>